<svg xmlns="http://www.w3.org/2000/svg" width="24" height="12" viewBox="0 0 24 12" fill="none">
    <path d="M19.8453 0.0114628H15.9398L15.9454 1.97819C14.2929 -0.123212 12.0899 0.00140083 12.0899 0.00140083H6.38155L0 11.9806H4.29365L5.61243 9.44881L8.11876 9.44571V11.9929L12.0039 11.9999C12.0039 11.9999 14.2484 12.0479 15.9313 10.0045L15.9285 11.9813H19.5899L19.5927 9.45965H19.9716C21.4562 9.58426 24.0113 7.90004 24 4.63764C23.9922 1.93252 22.1068 0.0114628 19.8453 0.0114628ZM19.5984 8.01304L18.1695 8.01691L18.1667 10.5432L17.2628 10.5456V8.01072H15.6639C15.6639 8.01072 14.7981 10.4473 11.9001 10.5332L9.54551 10.5463V7.99989L4.83203 7.99911L3.45326 10.5417H2.37438L7.13867 1.56178H11.8804C14.8672 1.58035 15.8692 4.3443 16.004 5.37449H17.2635L17.2649 1.53546L19.6957 1.53624C21.5395 1.63453 22.6148 3.32804 22.6466 4.47278C22.6981 6.27774 21.5444 7.92945 19.5984 8.01304Z" fill="currentColor"/>
    <path d="M10.4762 2.58593L10.4776 4.07123H11.6948C14.0925 4.06426 14.0939 7.99384 11.6306 7.9861H10.4769V9.47372H11.6391C13.5033 9.48456 14.9611 8.08827 14.9583 5.90637C14.9568 4.54956 13.9027 2.58515 11.8557 2.58515L10.4762 2.58593ZM18.2203 2.59676V4.08593H19.5363C20.3851 4.1316 20.4021 5.47835 19.5447 5.47293H18.2274V6.97604C18.2274 6.97604 19.3683 6.98378 19.4735 6.97604C20.5827 6.97217 21.5776 6.13006 21.5776 4.70049C21.5776 3.28484 20.5566 2.59754 19.4735 2.59754C19.6619 2.59676 18.2203 2.59676 18.2203 2.59676ZM8.17945 2.56735L9.5441 2.56425V6.983H5.4191L6.2115 5.46752L8.17592 5.47603L8.17945 2.56735Z" fill="currentColor"/>
</svg>
