<svg xmlns="http://www.w3.org/2000/svg" width="20" height="20" viewBox="0 0 20 20" fill="none">
    <path d="M5.83333 5.00001H8.33333M5.83333 8.33334H8.33333M5.83333 11.6667H8.33333M5.83333 15H8.33333M14.1667 11.6667H15M14.1667 15H15M10.3333 18.3333C10.8 18.3333 11.0334 18.3333 11.2117 18.2425C11.3685 18.1626 11.4959 18.0351 11.5758 17.8783C11.6667 17.7001 11.6667 17.4667 11.6667 17V8.33334M10.3333 18.3333H16.1667C16.6334 18.3333 16.8667 18.3333 17.045 18.2425C17.2018 18.1626 17.3293 18.0351 17.4092 17.8783C17.5 17.7001 17.5 17.4667 17.5 17V11C17.5 10.0666 17.5 9.59987 17.3183 9.24335C17.1586 8.92975 16.9036 8.67478 16.59 8.51499C16.2335 8.33334 15.7668 8.33334 14.8333 8.33334H11.6667M10.3333 18.3333H3.83333C3.36662 18.3333 3.13327 18.3333 2.95501 18.2425C2.79821 18.1626 2.67072 18.0351 2.59083 17.8783C2.5 17.7001 2.5 17.4667 2.5 17V4.33334C2.5 3.39992 2.5 2.93321 2.68166 2.57669C2.84144 2.26308 3.09641 2.00812 3.41002 1.84833C3.76654 1.66667 4.23325 1.66667 5.16667 1.66667H9C9.93342 1.66667 10.4001 1.66667 10.7567 1.84833C11.0703 2.00812 11.3252 2.26308 11.485 2.57669C11.6667 2.93321 11.6667 3.39992 11.6667 4.33334V8.33334" stroke="currentColor" stroke-width="2" stroke-linecap="round" stroke-linejoin="round"/>
</svg>
