<svg xmlns="http://www.w3.org/2000/svg" width="20" height="20" viewBox="0 0 20 20" fill="none">
    <path d="M1.66663 2.5H2.68717C3.50723 2.5 3.91727 2.5 4.24723 2.6508C4.53802 2.78369 4.78444 2.99742 4.95713 3.26648C5.15308 3.57182 5.21106 3.97773 5.32703 4.78954L6.33955 11.8772C6.45553 12.689 6.51351 13.0949 6.70946 13.4003C6.88214 13.6693 7.12857 13.883 7.41935 14.0159C7.74932 14.1667 8.15935 14.1667 8.97942 14.1667H11.893C13.5811 14.1667 14.4251 14.1667 15.097 13.852C15.689 13.5748 16.1863 13.1296 16.5271 12.572C16.9141 11.9389 17.0074 11.1002 17.1937 9.4226C17.2186 9.19888 17.2439 8.97178 17.2697 8.73903C17.35 8.01649 17.3901 7.65522 17.2778 7.36809C17.179 7.11567 17.0008 6.9022 16.7701 6.75986C16.5077 6.59794 16.1453 6.57282 15.4203 6.52257L5.47615 5.83333M8.33329 17.5C8.33329 17.9602 7.9602 18.3333 7.49996 18.3333C7.03972 18.3333 6.66663 17.9602 6.66663 17.5C6.66663 17.0398 7.03972 16.6667 7.49996 16.6667C7.9602 16.6667 8.33329 17.0398 8.33329 17.5ZM15.8333 17.5C15.8333 17.9602 15.4602 18.3333 15 18.3333C14.5397 18.3333 14.1666 17.9602 14.1666 17.5C14.1666 17.0398 14.5397 16.6667 15 16.6667C15.4602 16.6667 15.8333 17.0398 15.8333 17.5Z" stroke="currentColor" stroke-width="2" stroke-linecap="round" stroke-linejoin="round"/>
</svg>
