<svg xmlns="http://www.w3.org/2000/svg" width="14" height="12" viewBox="0 0 14 12" fill="none">
    <path d="M1.17797 2.40325C0.525316 2.40325 0 1.8674 0 1.20163C0 0.535864 0.525316 0 1.17797 0H9.40792C10.0605 0 10.5858 0.535864 10.5858 1.20163C10.5858 1.8674 10.0605 2.40325 9.40792 2.40325H1.17797Z" fill="currentColor"/>
    <path d="M1.17797 12C0.525316 12 0 11.4641 0 10.7983C0 10.1326 0.525316 9.59674 1.17797 9.59674H9.40792C10.0605 9.59674 10.5858 10.1326 10.5858 10.7983C10.5858 11.4641 10.0605 12 9.40792 12H1.17797Z" fill="currentColor"/>
    <path d="M12.8221 4.79837C13.4747 4.79837 14 5.33423 14 6.00003C14 6.66577 13.4747 7.20163 12.8221 7.20163H3.02417C2.3715 7.20163 1.84619 6.66577 1.84619 6.00003C1.84619 5.33423 2.3715 4.79837 3.02417 4.79837H12.8221Z" fill="currentColor"/>
</svg>
