<svg xmlns="http://www.w3.org/2000/svg" width="20" height="20" viewBox="0 0 20 20" fill="none">
    <path d="M16.6667 4.75V10M16.6667 4.75C16.6667 5.99264 13.682 7 10 7C6.31814 7 3.33337 5.99264 3.33337 4.75M16.6667 4.75C16.6667 3.50736 13.682 2.5 10 2.5C6.31814 2.5 3.33337 3.50736 3.33337 4.75M16.6667 10V15.1093C16.6667 16.4297 13.682 17.5 10 17.5C6.31814 17.5 3.33337 16.4297 3.33337 15.1093V10M16.6667 10C16.6667 11.2427 13.682 12.25 10 12.25C6.31814 12.25 3.33337 11.2427 3.33337 10M3.33337 10V4.75M13.3334 9.16667H13.3417M13.3334 14.1667H13.3417" stroke="currentColor" stroke-width="2" stroke-linecap="round" stroke-linejoin="round"/>
</svg>
