<svg xmlns="http://www.w3.org/2000/svg" width="20" height="20" viewBox="0 0 20 20" fill="none">
    <path d="M11.6667 1.71461V2.66667C11.6667 4.0668 11.6667 4.76687 11.9392 5.30165C12.1789 5.77205 12.5613 6.15451 13.0317 6.39419C13.5665 6.66667 14.2666 6.66667 15.6667 6.66667L16.6188 6.66667M11.6667 1.71461C11.3388 1.66667 10.9467 1.66667 10.2909 1.66667H8.66671C6.79987 1.66667 5.86644 1.66667 5.15341 2.02998C4.5262 2.34956 4.01626 2.8595 3.69669 3.4867C3.33337 4.19974 3.33337 5.13316 3.33337 7.00001V13C3.33337 14.8668 3.33337 15.8003 3.69669 16.5133C4.01626 17.1405 4.5262 17.6504 5.15341 17.97C5.86644 18.3333 6.79987 18.3333 8.66671 18.3333H11.3334C13.2002 18.3333 14.1336 18.3333 14.8467 17.97C15.4739 17.6504 15.9838 17.1405 16.3034 16.5133C16.6667 15.8003 16.6667 14.8668 16.6667 13V8.04248C16.6667 7.38667 16.6667 6.99462 16.6188 6.66667M11.6667 1.71461C11.7465 1.72626 11.8224 1.74076 11.8975 1.75877C12.2376 1.84043 12.5627 1.97511 12.861 2.15787C13.1974 2.36401 13.4856 2.65226 14.0621 3.22877L15.1046 4.27124C15.6811 4.84775 15.9694 5.136 16.1755 5.47239C16.3583 5.77063 16.493 6.09578 16.5746 6.4359C16.5926 6.51095 16.6071 6.58691 16.6188 6.66667" stroke="currentColor" stroke-width="2" stroke-linecap="round" stroke-linejoin="round"/>
</svg>
