<svg xmlns="http://www.w3.org/2000/svg" width="20" height="20" viewBox="0 0 20 20" fill="none">
    <path d="M5.16667 2.5C4.23325 2.5 3.76654 2.5 3.41002 2.68166C3.09641 2.84144 2.84145 3.09641 2.68166 3.41002C2.5 3.76654 2.5 4.23325 2.5 5.16667L2.5 5.66667C2.5 6.60009 2.5 7.0668 2.68166 7.42332C2.84145 7.73692 3.09641 7.99189 3.41002 8.15168C3.76654 8.33333 4.23325 8.33333 5.16667 8.33333L14.8333 8.33333C15.7668 8.33333 16.2335 8.33333 16.59 8.15168C16.9036 7.99189 17.1586 7.73692 17.3183 7.42332C17.5 7.0668 17.5 6.60009 17.5 5.66667V5.16667C17.5 4.23325 17.5 3.76654 17.3183 3.41002C17.1586 3.09641 16.9036 2.84145 16.59 2.68166C16.2335 2.5 15.7668 2.5 14.8333 2.5L5.16667 2.5Z" stroke="currentColor" stroke-width="2" stroke-linecap="round" stroke-linejoin="round"/>
    <path d="M4.58333 11.6667C4.19612 11.6667 4.00251 11.6667 3.84152 11.6987C3.18037 11.8302 2.66354 12.347 2.53202 13.0082C2.5 13.1692 2.5 13.3628 2.5 13.75L2.5 15.4167C2.5 15.8039 2.5 15.9975 2.53202 16.1585C2.66354 16.8196 3.18037 17.3365 3.84152 17.468C4.00251 17.5 4.19612 17.5 4.58333 17.5C4.97055 17.5 5.16415 17.5 5.32515 17.468C5.9863 17.3365 6.50313 16.8196 6.63464 16.1585C6.66667 15.9975 6.66667 15.8039 6.66667 15.4167V13.75C6.66667 13.3628 6.66667 13.1692 6.63464 13.0082C6.50313 12.347 5.9863 11.8302 5.32515 11.6987C5.16415 11.6667 4.97055 11.6667 4.58333 11.6667Z" stroke="currentColor" stroke-width="2" stroke-linecap="round" stroke-linejoin="round"/>
    <path d="M12.6667 11.6667C11.7332 11.6667 11.2665 11.6667 10.91 11.8483C10.5964 12.0081 10.3414 12.2631 10.1817 12.5767C10 12.9332 10 13.3999 10 14.3333V14.8333C10 15.7668 10 16.2335 10.1817 16.59C10.3414 16.9036 10.5964 17.1586 10.91 17.3183C11.2665 17.5 11.7332 17.5 12.6667 17.5H14.8333C15.7668 17.5 16.2335 17.5 16.59 17.3183C16.9036 17.1586 17.1586 16.9036 17.3183 16.59C17.5 16.2335 17.5 15.7668 17.5 14.8333V14.3333C17.5 13.3999 17.5 12.9332 17.3183 12.5767C17.1586 12.2631 16.9036 12.0081 16.59 11.8483C16.2335 11.6667 15.7668 11.6667 14.8333 11.6667H12.6667Z" stroke="currentColor" stroke-width="2" stroke-linecap="round" stroke-linejoin="round"/>
</svg>
