<svg xmlns="http://www.w3.org/2000/svg" width="20" height="20" viewBox="0 0 20 20" fill="none">
    <path d="M17.5 13.3333V7.33334C17.5 5.93321 17.5 5.23315 17.2275 4.69837C16.9878 4.22796 16.6053 3.84551 16.1349 3.60583C15.6002 3.33334 14.9001 3.33334 13.5 3.33334H6.49996C5.09983 3.33334 4.39976 3.33334 3.86498 3.60583C3.39458 3.84551 3.01213 4.22796 2.77244 4.69837C2.49996 5.23315 2.49996 5.93321 2.49996 7.33334V13.3333M17.5 13.3333L2.49996 13.3333M17.5 13.3333C17.9602 13.3333 18.3333 13.7064 18.3333 14.1667C18.3333 15.5474 17.214 16.6667 15.8333 16.6667L4.16663 16.6667C2.78591 16.6667 1.66663 15.5474 1.66663 14.1667C1.66663 13.7064 2.03972 13.3333 2.49996 13.3333" stroke="currentColor" stroke-width="2" stroke-linecap="round" stroke-linejoin="round"/>
</svg>
