<svg xmlns="http://www.w3.org/2000/svg" width="25" height="24" viewBox="0 0 25 24" fill="none">
    <path d="M12.1667 15V12M12.1667 12V9M12.1667 12H9.16675M12.1667 12H15.1667M12.1667 21C9.3711 21 7.97327 21 6.87065 20.5433C5.40048 19.9343 4.23243 18.7663 3.62347 17.2961C3.16675 16.1935 3.16675 14.7956 3.16675 12C3.16675 9.20435 3.16675 7.80653 3.62347 6.7039C4.23243 5.23373 5.40048 4.06569 6.87065 3.45672C7.97327 3 9.3711 3 12.1667 3C14.9624 3 16.3602 3 17.4628 3.45672C18.933 4.06569 20.1011 5.23373 20.71 6.7039C21.1667 7.80653 21.1667 9.20435 21.1667 12C21.1667 14.7956 21.1667 16.1935 20.71 17.2961C20.1011 18.7663 18.933 19.9343 17.4628 20.5433C16.3602 21 14.9624 21 12.1667 21Z" stroke="currentColor" stroke-width="2" stroke-linecap="round" stroke-linejoin="round"/>
</svg>
