<svg xmlns="http://www.w3.org/2000/svg" width="20" height="20" viewBox="0 0 20 20" fill="none">
    <path d="M1.66663 12.0833V9.16667C1.66663 6.83311 1.66663 5.66634 2.12077 4.77504C2.52024 3.99103 3.15766 3.35361 3.94167 2.95414C4.83296 2.5 5.99974 2.5 8.33329 2.5H11.25C12.4148 2.5 12.9972 2.5 13.4567 2.6903C14.0692 2.94404 14.5559 3.43072 14.8097 4.04329C14.9824 4.46043 14.9983 4.97895 14.9998 5.94275M1.66663 12.0833C1.66663 13.1914 1.66663 14.1621 1.98379 14.9278C2.40669 15.9488 3.21783 16.7599 4.23878 17.1828C5.00449 17.5 5.9752 17.5 7.91663 17.5H12.0833C14.0247 17.5 14.9954 17.5 15.7611 17.1828C16.7821 16.7599 17.5932 15.9488 18.0161 14.9278C18.3333 14.1621 18.3333 13.1914 18.3333 12.0833C18.3333 10.1419 18.3333 9.1712 18.0161 8.40549C17.5932 7.38454 16.7821 6.57339 15.7611 6.1505C15.5325 6.05578 15.2855 5.98934 14.9998 5.94275M1.66663 12.0833C1.66663 10.1419 1.66663 9.1712 1.98379 8.40549C2.40669 7.38454 3.21783 6.57339 4.23878 6.1505C5.00449 5.83333 5.9752 5.83333 7.91663 5.83333H12.0833C13.4449 5.83333 14.329 5.83333 14.9998 5.94275M11.6666 10H14.1666" stroke="currentColor" stroke-width="2" stroke-linecap="round" stroke-linejoin="round"/>
</svg>
